<svg width="156" height="95" viewBox="0 0 156 95" fill="none" xmlns="http://www.w3.org/2000/svg">
<path d="M24.25 95C29.4167 94 33.3333 91.0833 36 86.25L36.125 85.75V6.9375H18.1875L17.3125 7C14.3542 7.29167 8.58333 11.8542 0 20.6875L11.625 0.5625H73L84.625 20.6875C76.0417 11.8542 70.2708 7.29167 67.3125 7L66.4375 6.9375H48.5V85.75L48.625 86.3125C50.875 90.9375 54.7917 93.8333 60.375 95H24.25ZM79.625 95C83.5417 93.0833 87.4375 90.1667 91.3125 86.25L91.8125 85.6875L111.812 63.5L91.8125 36.9375L91.25 36.1875C87.9583 31.5208 84.0833 28.6875 79.625 27.6875H115.75C109.208 29.7708 105.938 31.9583 105.938 34.25C105.938 34.875 106.167 35.5 106.625 36.125L107 36.6875L120.125 54.25L135.625 37L136 36.5625C136.542 35.9375 136.812 35.2917 136.812 34.625C136.812 33.8333 136.375 33 135.5 32.125C133.958 30.7083 130.938 29.2292 126.438 27.6875H155.875C151.708 29.4375 147.812 32.3542 144.188 36.4375L143.812 36.875L123.75 59.0625L143.875 85.9375L144.25 86.375C147.708 90.4583 151.583 93.3333 155.875 95H119.75C126.5 93.2083 129.875 91.0833 129.875 88.625C129.875 87.875 129.542 87.0833 128.875 86.25L128.438 85.625L115.375 68.25L99.6875 85.625L99.125 86.25C98.5 86.9583 98.1875 87.6667 98.1875 88.375C98.1875 90.75 101.812 92.9583 109.062 95H79.625Z" fill="#098842"/>
</svg>
